<svg width="20" height="20" viewBox="0 0 20 20" fill="none" xmlns="http://www.w3.org/2000/svg">
<g clip-path="url(#clip0_4064_7159)">
<path d="M12.0664 6.76953C12.1924 7.07228 12.457 7.29116 12.7715 7.36133L12.9092 7.38184L18.2725 7.8125L14.1865 11.3125C13.9375 11.5259 13.8113 11.8452 13.8418 12.166L13.8643 12.3037L15.1123 17.5371L10.5215 14.7324C10.2416 14.5615 9.89826 14.5399 9.60254 14.668L9.47852 14.7324L4.8877 17.5371L6.13574 12.3037C6.21184 11.9847 6.12627 11.6518 5.91309 11.4102L5.81348 11.3125L1.72754 7.8125L7.09082 7.38184C7.41793 7.3555 7.70827 7.17137 7.87207 6.89355L7.93359 6.76953L10 1.80176L12.0664 6.76953Z" stroke="#FEC84B"/>
</g>
<defs>
<clipPath id="clip0_4064_7159">
<rect width="20" height="20" fill="white"/>
</clipPath>
</defs>
</svg>
